<svg width="41" height="41" viewBox="0 0 41 41" fill="none" xmlns="http://www.w3.org/2000/svg">
<rect x="0.25" y="0.25" width="40.5" height="40.5" rx="11.25" fill="#7C7C7C" fill-opacity="0.1"/>
<rect x="0.25" y="0.25" width="40.5" height="40.5" rx="11.25" stroke="#E5E5E5" stroke-width="0.5"/>
<path fill-rule="evenodd" clip-rule="evenodd" d="M19.5 22.5C19.5 22.7652 19.6054 23.0196 19.7929 23.2071C19.9804 23.3947 20.2348 23.5 20.5 23.5C20.7652 23.5 21.0196 23.3947 21.2071 23.2071C21.3946 23.0196 21.5 22.7652 21.5 22.5V14.5H23.5C23.6978 14.5 23.891 14.4413 24.0555 14.3314C24.2199 14.2215 24.348 14.0654 24.4237 13.8827C24.4993 13.7 24.5192 13.499 24.4806 13.305C24.442 13.111 24.3468 12.9329 24.207 12.793L21.207 9.79303C21.0195 9.60556 20.7652 9.50024 20.5 9.50024C20.2348 9.50024 19.9805 9.60556 19.793 9.79303L16.793 12.793C16.6532 12.9329 16.558 13.111 16.5194 13.305C16.4808 13.499 16.5007 13.7 16.5763 13.8827C16.652 14.0654 16.7801 14.2215 16.9445 14.3314C17.109 14.4413 17.3022 14.5 17.5 14.5H19.5V22.5ZM12.5 16.5C12.2348 16.5 11.9804 16.6054 11.7929 16.7929C11.6054 16.9805 11.5 17.2348 11.5 17.5V26.5C11.5 27.2957 11.8161 28.0587 12.3787 28.6214C12.9413 29.184 13.7044 29.5 14.5 29.5H26.5C27.2956 29.5 28.0587 29.184 28.6213 28.6214C29.1839 28.0587 29.5 27.2957 29.5 26.5V17.5C29.5 17.2348 29.3946 16.9805 29.2071 16.7929C29.0196 16.6054 28.7652 16.5 28.5 16.5H26.5C26.2348 16.5 25.9804 16.6054 25.7929 16.7929C25.6054 16.9805 25.5 17.2348 25.5 17.5C25.5 17.7652 25.6054 18.0196 25.7929 18.2071C25.9804 18.3947 26.2348 18.5 26.5 18.5H27.5V26.5C27.5 26.7652 27.3946 27.0196 27.2071 27.2071C27.0196 27.3947 26.7652 27.5 26.5 27.5H14.5C14.2348 27.5 13.9804 27.3947 13.7929 27.2071C13.6054 27.0196 13.5 26.7652 13.5 26.5V18.5H14.5C14.7652 18.5 15.0196 18.3947 15.2071 18.2071C15.3946 18.0196 15.5 17.7652 15.5 17.5C15.5 17.2348 15.3946 16.9805 15.2071 16.7929C15.0196 16.6054 14.7652 16.5 14.5 16.5H12.5Z" fill="#808080"/>
</svg>
