<svg width="41" height="41" viewBox="0 0 41 41" fill="none" xmlns="http://www.w3.org/2000/svg">
<rect x="0.25" y="0.25" width="40.5" height="40.5" rx="11.25" fill="#7C7C7C" fill-opacity="0.1"/>
<rect x="0.25" y="0.25" width="40.5" height="40.5" rx="11.25" stroke="#E5E5E5" stroke-width="0.5"/>
<path d="M19.4999 20.4999C19.7448 20.4999 19.9812 20.5899 20.1643 20.7526C20.3473 20.9154 20.4642 21.1397 20.4929 21.3829L20.4999 21.4999V26.4999C20.4996 26.7548 20.402 26.9999 20.227 27.1853C20.0521 27.3706 19.8129 27.4821 19.5585 27.4971C19.304 27.512 19.0535 27.4292 18.8581 27.2657C18.6626 27.1021 18.537 26.87 18.5069 26.6169L18.4999 26.4999V23.9139L13.2069 29.2069C13.0269 29.3863 12.7855 29.4904 12.5315 29.4981C12.2776 29.5059 12.0302 29.4167 11.8396 29.2487C11.649 29.0806 11.5296 28.8464 11.5055 28.5934C11.4814 28.3405 11.5545 28.0879 11.7099 27.8869L11.7929 27.7929L17.0859 22.4999H14.4999C14.245 22.4996 13.9999 22.402 13.8145 22.2271C13.6292 22.0521 13.5176 21.813 13.5027 21.5585C13.4878 21.3041 13.5706 21.0535 13.7341 20.8581C13.8977 20.6626 14.1298 20.537 14.3829 20.5069L14.4999 20.4999H19.4999ZM27.7929 11.7929C27.9728 11.6136 28.2143 11.5094 28.4683 11.5017C28.7222 11.4939 28.9696 11.5831 29.1602 11.7512C29.3507 11.9192 29.4702 12.1535 29.4943 12.4064C29.5184 12.6593 29.4453 12.9119 29.2899 13.1129L29.2069 13.2069L23.9139 18.4999H26.4999C26.7548 18.5002 26.9999 18.5978 27.1853 18.7728C27.3706 18.9477 27.4821 19.1869 27.4971 19.4413C27.512 19.6958 27.4292 19.9463 27.2656 20.1417C27.102 20.3372 26.87 20.4628 26.6169 20.4929L26.4999 20.4999H21.4999C21.255 20.4999 21.0185 20.41 20.8355 20.2472C20.6525 20.0844 20.5355 19.8602 20.5069 19.6169L20.4999 19.4999V14.4999C20.5002 14.245 20.5978 13.9999 20.7727 13.8145C20.9477 13.6292 21.1868 13.5177 21.4413 13.5027C21.6957 13.4878 21.9463 13.5706 22.1417 13.7342C22.3372 13.8978 22.4628 14.1298 22.4929 14.3829L22.4999 14.4999V17.0859L27.7929 11.7929Z" fill="#808080"/>
</svg>
