<svg width="155" height="33" viewBox="0 0 155 33" fill="none" xmlns="http://www.w3.org/2000/svg">
<path d="M3.40812 32.16H0.000117302V3.33786e-05H3.74412L20.5921 21.84L24.4801 27.216H24.7681L24.6721 21.936V3.33786e-05H28.0801V32.16H24.3361L7.58412 10.56L3.55212 5.13603H3.31212L3.40812 10.512V32.16ZM40.373 32.64C35.717 32.64 32.549 30.432 32.549 26.592C32.549 22.704 35.765 21.024 40.181 20.544L51.461 19.296V17.472C51.461 12.864 49.445 11.04 44.261 11.04C39.173 11.04 36.485 12.864 36.485 17.04V17.232H33.077V17.04C33.077 12.048 37.205 7.96803 44.501 7.96803C51.701 7.96803 54.773 12.096 54.773 17.328V32.16H51.701V25.776H51.461C50.069 30.144 45.893 32.64 40.373 32.64ZM35.957 26.352C35.957 28.752 37.541 30 41.141 30C46.901 30 51.461 27.456 51.461 21.744V21.552L41.237 22.704C37.685 23.04 35.957 23.904 35.957 26.352ZM74.9191 32.16H69.7831C65.0791 32.16 62.0551 30.192 62.0551 24.624V11.376H57.8311V8.44803H62.0551V2.78403H65.5111V8.44803H74.9191V11.376H65.5111V24.816C65.5111 28.128 67.1431 29.04 70.5991 29.04H74.9191V32.16ZM88.5924 32.64C81.8244 32.64 78.5124 27.936 78.5124 22.32V8.44803H81.9204V21.792C81.9204 26.736 84.3204 29.568 89.7924 29.568C95.6004 29.568 98.6244 26.064 98.6244 19.968V8.44803H102.032V32.16H98.9604V24.768H98.7204C97.9044 28.8 94.4964 32.64 88.5924 32.64ZM111.174 32.16H107.766V8.44803H110.838V14.928H111.078C111.798 11.136 114.486 7.96803 119.43 7.96803C124.902 7.96803 127.302 12 127.302 16.416V18.768H123.894V16.944C123.894 12.912 122.214 10.944 118.086 10.944C113.286 10.944 111.174 13.968 111.174 19.296V32.16ZM142.53 32.64C134.898 32.64 130.05 27.84 130.05 20.304C130.05 13.104 134.85 7.96803 142.482 7.96803C149.442 7.96803 154.386 12 154.386 19.056C154.386 19.92 154.29 20.64 154.146 21.264H133.266C133.458 26.592 136.194 29.808 142.482 29.808C148.05 29.808 150.642 27.744 150.642 24.288V23.952H154.05V24.288C154.05 29.232 149.154 32.64 142.53 32.64ZM142.434 10.8C136.29 10.8 133.506 13.968 133.266 19.152H151.17C151.17 18.912 151.17 18.672 151.17 18.432C151.17 13.44 148.002 10.8 142.434 10.8Z" fill="black"/>
</svg>
