<svg width="41" height="41" viewBox="0 0 41 41" fill="none" xmlns="http://www.w3.org/2000/svg">
<rect x="0.25" y="0.25" width="40.5" height="40.5" rx="11.25" fill="#7C7C7C" fill-opacity="0.1"/>
<rect x="0.25" y="0.25" width="40.5" height="40.5" rx="11.25" stroke="#E5E5E5" stroke-width="0.5"/>
<path d="M28.3999 21.1599C28.2396 20.9774 28.1512 20.7428 28.1512 20.4999C28.1512 20.257 28.2396 20.0224 28.3999 19.8399L29.6799 18.3999C29.8209 18.2426 29.9085 18.0446 29.9301 17.8344C29.9516 17.6242 29.9061 17.4126 29.7999 17.2299L27.7999 13.7699C27.6948 13.5874 27.5348 13.4428 27.3426 13.3566C27.1505 13.2704 26.9361 13.2471 26.7299 13.2899L24.8499 13.6699C24.6107 13.7193 24.3616 13.6795 24.1498 13.5579C23.9379 13.4363 23.7779 13.2414 23.6999 13.0099L23.0899 11.1799C23.0228 10.9813 22.895 10.8088 22.7245 10.6867C22.5541 10.5647 22.3495 10.4994 22.1399 10.4999H18.1399C17.9218 10.4885 17.706 10.5488 17.5255 10.6716C17.3449 10.7944 17.2095 10.9729 17.1399 11.1799L16.5799 13.0099C16.5019 13.2414 16.3419 13.4363 16.13 13.5579C15.9181 13.6795 15.6691 13.7193 15.4299 13.6699L13.4999 13.2899C13.3044 13.2623 13.1052 13.2931 12.9272 13.3785C12.7493 13.464 12.6006 13.6001 12.4999 13.7699L10.4999 17.2299C10.3911 17.4105 10.3421 17.621 10.3601 17.8311C10.378 18.0413 10.462 18.2403 10.5999 18.3999L11.8699 19.8399C12.0302 20.0224 12.1186 20.257 12.1186 20.4999C12.1186 20.7428 12.0302 20.9774 11.8699 21.1599L10.5999 22.5999C10.462 22.7595 10.378 22.9585 10.3601 23.1687C10.3421 23.3788 10.3911 23.5892 10.4999 23.7699L12.4999 27.2299C12.605 27.4124 12.765 27.557 12.9571 27.6432C13.1493 27.7294 13.3637 27.7527 13.5699 27.7099L15.4499 27.3299C15.6891 27.2805 15.9381 27.3203 16.15 27.4419C16.3619 27.5635 16.5219 27.7584 16.5999 27.9899L17.2099 29.8199C17.2795 30.0269 17.4149 30.2054 17.5955 30.3282C17.776 30.451 17.9918 30.5113 18.2099 30.4999H22.2099C22.4195 30.5004 22.6241 30.4351 22.7945 30.3131C22.965 30.191 23.0928 30.0185 23.1599 29.8199L23.7699 27.9899C23.8479 27.7584 24.0079 27.5635 24.2198 27.4419C24.4316 27.3203 24.6807 27.2805 24.9199 27.3299L26.7999 27.7099C27.0061 27.7527 27.2205 27.7294 27.4126 27.6432C27.6048 27.557 27.7648 27.4124 27.8699 27.2299L29.8699 23.7699C29.9761 23.5872 30.0216 23.3756 30.0001 23.1654C29.9785 22.9552 29.8909 22.7572 29.7499 22.5999L28.3999 21.1599ZM26.9099 22.4999L27.7099 23.3999L26.4299 25.6199L25.2499 25.3799C24.5297 25.2327 23.7805 25.355 23.1445 25.7237C22.5085 26.0924 22.03 26.6817 21.7999 27.3799L21.4199 28.4999H18.8599L18.4999 27.3599C18.2698 26.6617 17.7913 26.0724 17.1553 25.7037C16.5193 25.335 15.7701 25.2127 15.0499 25.3599L13.8699 25.5999L12.5699 23.3899L13.3699 22.4899C13.8619 21.9399 14.1338 21.2278 14.1338 20.4899C14.1338 19.752 13.8619 19.0399 13.3699 18.4899L12.5699 17.5899L13.8499 15.3899L15.0299 15.6299C15.7501 15.7771 16.4993 15.6548 17.1353 15.2861C17.7713 14.9174 18.2498 14.3281 18.4799 13.6299L18.8599 12.4999H21.4199L21.7999 13.6399C22.03 14.3381 22.5085 14.9274 23.1445 15.2961C23.7805 15.6648 24.5297 15.7871 25.2499 15.6399L26.4299 15.3999L27.7099 17.6199L26.9099 18.5199C26.4235 19.0687 26.1549 19.7766 26.1549 20.5099C26.1549 21.2432 26.4235 21.9511 26.9099 22.4999ZM20.1399 16.4999C19.3488 16.4999 18.5754 16.7345 17.9176 17.174C17.2598 17.6135 16.7471 18.2383 16.4444 18.9692C16.1416 19.7001 16.0624 20.5043 16.2168 21.2803C16.3711 22.0562 16.7521 22.7689 17.3115 23.3283C17.8709 23.8877 18.5836 24.2687 19.3595 24.423C20.1355 24.5774 20.9397 24.4982 21.6706 24.1954C22.4015 23.8927 23.0262 23.38 23.4658 22.7222C23.9053 22.0644 24.1399 21.291 24.1399 20.4999C24.1399 19.439 23.7185 18.4216 22.9683 17.6715C22.2182 16.9213 21.2008 16.4999 20.1399 16.4999ZM20.1399 22.4999C19.7443 22.4999 19.3577 22.3826 19.0288 22.1628C18.6999 21.9431 18.4435 21.6307 18.2921 21.2653C18.1408 20.8998 18.1012 20.4977 18.1783 20.1097C18.2555 19.7218 18.446 19.3654 18.7257 19.0857C19.0054 18.806 19.3618 18.6155 19.7497 18.5383C20.1377 18.4612 20.5398 18.5008 20.9053 18.6521C21.2707 18.8035 21.5831 19.0599 21.8028 19.3888C22.0226 19.7177 22.1399 20.1043 22.1399 20.4999C22.1399 21.0303 21.9292 21.539 21.5541 21.9141C21.179 22.2892 20.6703 22.4999 20.1399 22.4999Z" fill="#808080"/>
</svg>
